<svg width="233" viewBox="0 0 233 51" fill="none" xmlns="http://www.w3.org/2000/svg">
<path d="M20.6477 12.7474L25.3986 36.5911L42.3401 33.1848L42.4298 25.8345H36.2447C33.8245 25.8345 31.7629 24.221 31.225 21.8008C30.6872 19.4702 31.8524 17.05 34.0934 16.064L51.3039 8.17585C52.021 7.90693 52.6485 7.72766 53.4552 7.72766C54.8894 7.72766 56.234 8.35512 57.22 9.34114C58.206 10.3272 58.6542 11.7614 58.5646 13.1956L57.7578 25.476C61.3433 19.7391 62.419 13.3748 60.2677 7.72766C55.7858 -4.10455 43.5951 4.0525 27.1913 10.3272C24.9504 11.2235 22.799 12.0303 20.6477 12.7474Z" fill="#00EAB2"/>
<path d="M6.12642 18.4841C1.01705 21.2629 -1.40319 24.7588 0.837755 30.5853C2.63051 35.2464 6.39529 38.7423 11.2357 40.8936L6.12642 18.4841Z" fill="#00EAB2"/>
<path d="M26.8327 0.01877L7.82949 2.34936C6.84347 2.43899 6.12635 3.42501 6.30563 4.50067L16.3451 48.8714C16.5244 49.7678 17.5104 50.3953 18.4068 50.216L51.8417 43.1346C52.5588 42.9553 53.1863 42.3279 53.1863 41.5211L55.0687 13.2852C55.1583 11.9406 53.8138 11.0442 52.6485 11.5821L35.438 19.4702C33.7348 20.2769 34.2727 22.7868 36.1551 22.7868H43.9536C44.9396 22.7868 45.7463 23.5935 45.6567 24.5796L45.5671 34.8879C45.5671 35.6947 44.9396 36.4118 44.1329 36.591L24.2332 40.6248C23.2472 40.804 22.3508 40.1766 22.1716 39.2802L16.4348 10.2375C16.2555 9.43075 16.7037 8.62401 17.4208 8.3551L27.5498 3.69392C29.6115 2.43899 28.8048 -0.250144 26.8327 0.01877Z" fill="#EA0046"/>
<path d="M86.6212 35.9635C86.6212 37.1288 86.173 38.2045 85.3663 39.0112C84.5595 39.818 83.4839 40.2662 82.3186 40.2662H71.2035V36.1428H82.3186C82.4082 36.1428 82.4978 36.0532 82.4978 35.9635V33.0951H72.4584C71.2931 33.0951 70.2175 32.6469 69.4107 31.8402C68.604 31.0335 68.1558 29.9578 68.1558 28.7925V19.2012C68.1558 18.0359 68.604 16.9603 69.4107 16.1536C70.2175 15.3468 71.2931 14.8986 72.4584 14.8986H82.3186C83.4839 14.8986 84.5595 15.3468 85.3663 16.1536C86.173 16.9603 86.6212 18.0359 86.6212 19.2012V35.9635ZM72.4584 28.9718H82.3186C82.4082 28.9718 82.4978 28.8821 82.4978 28.7925V19.2012C82.4978 19.022 82.4082 19.022 82.3186 19.022H72.4584C72.2792 19.022 72.2791 19.1116 72.2791 19.2012V28.7029C72.2791 28.8821 72.3688 28.9718 72.4584 28.9718Z" fill="white"/>
<path d="M103.294 14.8986C104.459 14.8986 105.535 15.3468 106.342 16.1536C107.148 16.9603 107.596 18.0359 107.596 19.2012V33.0951H93.4337C92.2684 33.0951 91.1928 32.6469 90.3861 31.8402C89.5793 31.0335 89.1311 29.9578 89.1311 28.7925V21.98H103.473V19.2909C103.473 19.1116 103.384 19.1116 103.294 19.1116H89.1311V14.9883H103.294V14.8986ZM103.563 28.9718V26.0137H93.2544V28.7029C93.2544 28.8821 93.3441 28.8821 93.4337 28.8821H103.563V28.9718Z" fill="white"/>
<path d="M133.143 14.8986C134.309 14.8986 135.384 15.3468 136.191 16.1536C136.998 16.9603 137.446 18.0359 137.446 19.2012V33.0951H133.323V19.2012C133.323 19.022 133.233 19.022 133.054 19.022H126.241C126.152 19.022 126.062 19.1116 126.062 19.2012V33.0951H121.939V19.2012C121.939 19.022 121.849 19.022 121.759 19.022H114.857C114.678 19.022 114.678 19.1116 114.678 19.2012V33.0951H110.555V14.8986H133.143Z" fill="white"/>
<path d="M154.029 14.8986C155.194 14.8986 156.27 15.3468 157.077 16.1536C157.884 16.9603 158.332 18.0359 158.332 19.2012V26.0137H143.99V28.7029C143.99 28.8821 144.079 28.8821 144.169 28.8821H158.332V33.0055H144.259C143.093 33.0055 142.018 32.5573 141.211 31.7506C140.404 30.9438 139.956 29.8682 139.956 28.7029V19.2012C139.956 18.0359 140.404 16.9603 141.211 16.1536C142.018 15.3468 143.093 14.8986 144.259 14.8986H154.029ZM143.99 21.8904H154.298V19.2012C154.298 19.022 154.208 19.022 154.119 19.022H144.259C144.079 19.022 144.079 19.1116 144.079 19.2012V21.8904H143.99Z" fill="white"/>
<path d="M175.901 14.8986C177.066 14.8986 178.142 15.3468 178.948 16.1536C179.755 16.9603 180.203 18.0359 180.203 19.2012V28.7029C180.203 29.8682 179.755 30.9438 178.948 31.7506C178.142 32.5573 177.066 33.0055 175.901 33.0055H165.861V40.2662H161.738V14.8986H175.901ZM176.08 28.7925V19.2012C176.08 19.022 175.99 19.022 175.901 19.022H166.041C165.861 19.022 165.861 19.1116 165.861 19.2012V28.7029C165.861 28.8821 165.951 28.8821 166.041 28.8821H175.901C175.99 28.9718 176.08 28.8821 176.08 28.7925Z" fill="white"/>
<path d="M182.534 8.89294H186.657V28.7029C186.657 28.8822 186.747 28.8822 186.837 28.8822H190.512V33.0056H186.837C185.671 33.0056 184.596 32.5574 183.789 31.7506C182.982 30.9439 182.534 29.8682 182.534 28.7029V8.89294Z" fill="white"/>
<path d="M207.453 14.8986C208.618 14.8986 209.694 15.3468 210.501 16.1536C211.308 16.9603 211.756 18.0359 211.756 19.2012V26.0137H197.414V28.7029C197.414 28.8821 197.503 28.8821 197.593 28.8821H211.756V33.0055H197.593C196.428 33.0055 195.352 32.5573 194.545 31.7506C193.739 30.9438 193.29 29.8682 193.29 28.7029V19.2012C193.29 18.0359 193.739 16.9603 194.545 16.1536C195.352 15.3468 196.428 14.8986 197.593 14.8986H207.453ZM197.414 21.8904H207.722V19.2012C207.722 19.022 207.632 19.022 207.543 19.022H197.683C197.503 19.022 197.503 19.1116 197.503 19.2012V21.8904H197.414Z" fill="white"/>
<path d="M228.518 14.8986H233V15.9743L226.277 23.8624L233 32.1091V33.1848H228.518L223.588 27.179L218.658 33.1848H214.176V32.1091L220.899 23.8624L214.176 15.9743V14.8986H218.658L223.588 20.6354L228.518 14.8986Z" fill="white"/>
</svg>
